<svg width="82" height="126" viewBox="0 0 82 126" fill="none" xmlns="http://www.w3.org/2000/svg">
<path opacity="0.35" d="M32.2557 76.2562C35.9182 72.5937 72.3432 36.1687 76.0057 32.5062C83.3307 25.1812 83.3307 13.3125 76.0057 5.9875C68.6807 -1.3375 56.8119 -1.3375 49.4869 5.9875C45.8244 9.65 9.39942 46.075 5.73692 49.7375C-1.58809 57.0625 -1.58809 68.9312 5.73692 76.2562C13.0619 83.5813 24.9369 83.5813 32.2557 76.2562Z" fill="#FF725E"/>
<path d="M5.74375 76.2563C9.40625 79.9188 45.8313 116.344 49.4938 120.006C56.8188 127.331 68.6875 127.331 76.0125 120.006C83.3375 112.681 83.3375 100.813 76.0125 93.4875C72.35 89.825 35.925 53.4 32.2625 49.7375C24.9375 42.4125 13.0688 42.4125 5.74375 49.7375C-1.58125 57.0625 -1.58125 68.9375 5.74375 76.2563Z" fill="#FF725E"/>
</svg>
