<svg width="82" height="126" viewBox="0 0 82 126" fill="none" xmlns="http://www.w3.org/2000/svg">
<path opacity="0.35" d="M49.7443 49.7437C46.0818 53.4062 9.65682 89.8313 5.99432 93.4938C-1.33068 100.819 -1.33068 112.687 5.99432 120.013C13.3193 127.338 25.1881 127.338 32.5131 120.013C36.1756 116.35 72.6006 79.925 76.2631 76.2625C83.5881 68.9375 83.5881 57.0688 76.2631 49.7438C68.9381 42.4187 57.0631 42.4187 49.7443 49.7437Z" fill="#FF725E"/>
<path d="M76.2562 49.7437C72.5937 46.0812 36.1687 9.65625 32.5062 5.99375C25.1812 -1.33125 13.3125 -1.33125 5.98749 5.99375C-1.33751 13.3187 -1.33751 25.1875 5.98749 32.5125C9.64999 36.175 46.075 72.6 49.7375 76.2625C57.0625 83.5875 68.9312 83.5875 76.2562 76.2625C83.5812 68.9375 83.5812 57.0625 76.2562 49.7437Z" fill="#FF725E"/>
</svg>
