<svg width="38" height="39" viewBox="0 0 38 39" fill="none" xmlns="http://www.w3.org/2000/svg">
<path d="M8 10C5.242 10 3 7.754 3 4.998C3 2.242 5.242 0 8 0C10.757 0 13 2.242 13 4.998C13 7.754 10.757 10 8 10ZM0 19V26L3 28L3.547 31.727L4 39H12L12.64 31.727L13 28L16 26V19C16 14.984 13.453 11 8 11C2.546 11 0 14.984 0 19ZM20 19.001V26L22.729 27.816L23.501 31.726L25 39H31L32.592 31.727L33.273 27.817L36 26V19.001C36 15.364 33.456 11.001 28 11.001C22.547 11.001 20 15.364 20 19.001ZM27.998 10C25.241 10 23 7.754 23 4.998C23 2.242 25.241 0 27.998 0C30.756 0 33 2.242 33 4.998C33 7.754 30.756 10 27.998 10Z" fill="#FFB74D"/>
<path d="M13 19H16C16 14.984 13.453 11 8 11C2.546 11 0 14.984 0 19H3V28H13V19Z" fill="#4CAF50"/>
<path d="M3 26H13V32H3V26Z" fill="#3F51B5"/>
<path d="M7 32L8 28L9 32H7Z" fill="#1A237E"/>
<path d="M7 32H9V39H7V32ZM27 29H29V39H27V29Z" fill="#FFA726"/>
<path d="M36 19C36 15.363 33.501 11 28.045 11C22.592 11 20 15.363 20 19H23.072L21 30.001C21 30.001 22.547 32.001 28 32.001C33.456 32.001 35 30.001 35 30.001L33.072 19H36Z" fill="#F50057"/>
<path d="M24 3.00098C22.181 3.00098 19 3.71698 19 8.99998H22C22 8.99998 22 4.00098 24 4.00098V3.00098ZM32.102 3.00098C33.921 3.00098 37.102 3.71698 37.102 8.99998H34.102C34.102 8.99998 34.102 4.00098 32.102 4.00098V3.00098Z" fill="#795548"/>
<path d="M32.8991 4C32.4351 1.72 30.4141 0 27.9981 0C25.5831 0 23.5641 1.72 23.1011 4H32.8991Z" fill="#795548"/>
<path d="M15.776 17H13V19H16C16 18.326 15.922 17.654 15.776 17ZM3 17H0.224C0.078 17.654 0 18.326 0 19H3V17ZM8 11C6.421 11 5.094 11.342 3.993 11.914C5.174 12.6 6.539 13 8 13C9.461 13 10.826 12.6 12.006 11.914C10.906 11.342 9.578 11 8 11Z" fill="#2E7D32"/>
</svg>
