<svg xmlns="http://www.w3.org/2000/svg" xmlns:xlink="http://www.w3.org/1999/xlink" viewBox="0 0 24 24" fill="#2E363E">
  <path d="M4 3C3.448 3 3 3.448 3 4L3 6C3 6.552 3.448 7 4 7L6 7C6.552 7 7 6.552 7 6L7 4C7 3.448 6.552 3 6 3L4 3 z M 11 3C10.448 3 10 3.448 10 4L10 6C10 6.552 10.448 7 11 7L13 7C13.552 7 14 6.552 14 6L14 4C14 3.448 13.552 3 13 3L11 3 z M 18 3C17.448 3 17 3.448 17 4L17 6C17 6.552 17.448 7 18 7L20 7C20.552 7 21 6.552 21 6L21 4C21 3.448 20.552 3 20 3L18 3 z M 4 10C3.448 10 3 10.448 3 11L3 13C3 13.552 3.448 14 4 14L6 14C6.552 14 7 13.552 7 13L7 11C7 10.448 6.552 10 6 10L4 10 z M 11 10C10.448 10 10 10.448 10 11L10 13C10 13.552 10.448 14 11 14L13 14C13.552 14 14 13.552 14 13L14 11C14 10.448 13.552 10 13 10L11 10 z M 18 10C17.448 10 17 10.448 17 11L17 13C17 13.552 17.448 14 18 14L20 14C20.552 14 21 13.552 21 13L21 11C21 10.448 20.552 10 20 10L18 10 z M 4 17C3.448 17 3 17.448 3 18L3 20C3 20.552 3.448 21 4 21L6 21C6.552 21 7 20.552 7 20L7 18C7 17.448 6.552 17 6 17L4 17 z M 11 17C10.448 17 10 17.448 10 18L10 20C10 20.552 10.448 21 11 21L13 21C13.552 21 14 20.552 14 20L14 18C14 17.448 13.552 17 13 17L11 17 z M 18 17C17.448 17 17 17.448 17 18L17 20C17 20.552 17.448 21 18 21L20 21C20.552 21 21 20.552 21 20L21 18C21 17.448 20.552 17 20 17L18 17 z" fill="#2E363E" />
</svg>