<svg xmlns="http://www.w3.org/2000/svg" xmlns:xlink="http://www.w3.org/1999/xlink" viewBox="0 0 50 50" fill="#FF725E">
  <path d="M10 0C9.449219 0 9 0.449219 9 1L9 4.6875C9.910156 4.253906 10.925781 4 12 4C15.859375 4 19 7.140625 19 11C19 12.210938 18.699219 13.351563 18.15625 14.34375L21.3125 13.6875L25.21875 8.625C26.019531 7.558594 27.277344 6.96875 28.65625 6.96875C29.617188 6.96875 30.554688 7.273438 31.3125 7.84375C32.257813 8.554688 32.84375 9.609375 32.96875 10.8125C33.085938 11.921875 32.773438 13.066406 32.09375 13.96875L27.125 20.4375C26.5 21.269531 25.4375 21.964844 24.28125 22.3125L21 23.5L21 25L33 25L33 21L41.90625 21L43 23L41.90625 25L48 25L48 1C48 0.449219 47.554688 0 47 0 Z M 12 6C9.238281 6 7 8.238281 7 11C7 13.761719 9.238281 16 12 16C14.761719 16 17 13.761719 17 11C17 8.238281 14.761719 6 12 6 Z M 28.65625 8.96875C27.914063 8.96875 27.230469 9.289063 26.8125 9.84375L22.4375 15.5L15.46875 16.9375L9.21875 16.9375C6.550781 16.9375 5 18.488281 5 21.15625L5 31.3125C5.625 31.113281 6.308594 31 7 31C8.835938 31 10.503906 31.773438 11.6875 33L14.34375 32.96875C15.523438 31.753906 17.175781 31 19 31L19 22.09375L23.65625 20.4375C24.421875 20.21875 25.121094 19.753906 25.5 19.25L30.5 12.75C30.863281 12.261719 31.066406 11.644531 31 11.03125C30.933594 10.386719 30.621094 9.808594 30.125 9.4375C29.707031 9.125 29.1875 8.96875 28.65625 8.96875 Z M 21 26L21 30L49 30C49.554688 30 50 29.554688 50 29L50 27C50 26.445313 49.554688 26 49 26 Z M 7 33C4.519531 33 2.5 35.019531 2.5 37.5C2.5 39.164063 3.433594 40.597656 4.78125 41.375C2.285156 42.28125 0.5 44.691406 0.5 47.5L0.5 49.5C0.5 49.777344 0.722656 50 1 50L49 50C49.277344 50 49.5 49.777344 49.5 49.5L49.5 47.5C49.5 44.691406 47.714844 42.28125 45.21875 41.375C46.566406 40.597656 47.5 39.164063 47.5 37.5C47.5 35.019531 45.480469 33 43 33C40.519531 33 38.5 35.019531 38.5 37.5C38.5 39.164063 39.433594 40.597656 40.78125 41.375C39.082031 41.992188 37.703125 43.3125 37 44.96875C36.296875 43.3125 34.917969 41.992188 33.21875 41.375C34.566406 40.597656 35.5 39.164063 35.5 37.5C35.5 35.019531 33.480469 33 31 33C28.519531 33 26.5 35.019531 26.5 37.5C26.5 39.164063 27.433594 40.597656 28.78125 41.375C27.082031 41.992188 25.703125 43.3125 25 44.96875C24.296875 43.3125 22.917969 41.992188 21.21875 41.375C22.566406 40.597656 23.5 39.164063 23.5 37.5C23.5 35.019531 21.480469 33 19 33C16.519531 33 14.5 35.019531 14.5 37.5C14.5 39.164063 15.433594 40.597656 16.78125 41.375C15.082031 41.992188 13.703125 43.3125 13 44.96875C12.296875 43.3125 10.917969 41.992188 9.21875 41.375C10.566406 40.597656 11.5 39.164063 11.5 37.5C11.5 35.019531 9.480469 33 7 33Z" fill="#FF725E" />
</svg>